<svg width="14" height="12" viewBox="0 0 14 12" fill="none" xmlns="http://www.w3.org/2000/svg">
<path d="M1 6.50001C1.13261 6.5 1.25978 6.44732 1.35355 6.35356C1.44731 6.25979 1.49999 6.13262 1.5 6.00001C1.50105 5.07207 1.87013 4.18244 2.52628 3.52629C3.18243 2.87014 4.07206 2.50106 5 2.50001H11.7929L11.1464 3.14646C11.0527 3.24024 11 3.36742 11 3.50003C11 3.63264 11.0527 3.75982 11.1465 3.85359C11.2402 3.94735 11.3674 4.00003 11.5 4.00002C11.6326 4.00002 11.7598 3.94733 11.8536 3.85356L13.3536 2.35356C13.3553 2.35188 13.3567 2.34999 13.3583 2.34828C13.3681 2.33824 13.3777 2.32792 13.3866 2.31706C13.3918 2.31065 13.3964 2.3039 13.4013 2.29731C13.4061 2.29084 13.4112 2.28453 13.4157 2.27781C13.4208 2.27015 13.4252 2.26222 13.4299 2.25438C13.4336 2.24821 13.4374 2.24223 13.4408 2.23591C13.4451 2.22797 13.4487 2.21983 13.4525 2.21174C13.4556 2.20503 13.459 2.19844 13.4618 2.19154C13.4651 2.1837 13.4677 2.1757 13.4706 2.16774C13.4732 2.16029 13.4761 2.15297 13.4784 2.14537C13.4808 2.13734 13.4826 2.12916 13.4846 2.12104C13.4865 2.11336 13.4887 2.10572 13.4903 2.09788C13.4922 2.08845 13.4933 2.0789 13.4946 2.06935C13.4956 2.06272 13.4968 2.05622 13.4975 2.04951C13.5008 2.01659 13.5008 1.98343 13.4975 1.95051C13.4968 1.9438 13.4956 1.9373 13.4946 1.93067C13.4933 1.92112 13.4922 1.91157 13.4903 1.90214C13.4887 1.8943 13.4865 1.88667 13.4846 1.87898C13.4826 1.87086 13.4808 1.86268 13.4784 1.85466C13.4761 1.84706 13.4732 1.83973 13.4706 1.83229C13.4677 1.82432 13.4651 1.81633 13.4618 1.80848C13.459 1.80159 13.4556 1.79499 13.4525 1.78828C13.4487 1.78019 13.4451 1.77204 13.4408 1.76411C13.4374 1.75779 13.4336 1.75181 13.4299 1.74565C13.4252 1.7378 13.4208 1.72987 13.4157 1.72221C13.4112 1.71549 13.4061 1.70918 13.4013 1.70271C13.3964 1.69612 13.3918 1.68937 13.3866 1.68296C13.3775 1.67189 13.3678 1.66139 13.3578 1.65113C13.3563 1.64964 13.3551 1.64796 13.3536 1.64647L11.8536 0.146465C11.7598 0.0526909 11.6326 5.74377e-06 11.5 4.69616e-10C11.3674 -5.74283e-06 11.2402 0.0526683 11.1465 0.146435C11.0527 0.240201 11 0.367378 11 0.49999C11 0.632601 11.0527 0.759783 11.1464 0.853558L11.7929 1.50001H5C3.80694 1.50135 2.66313 1.97589 1.8195 2.81951C0.975881 3.66314 0.501344 4.80695 0.5 6.00001C0.500006 6.13262 0.552687 6.25979 0.646454 6.35356C0.740221 6.44732 0.867394 6.5 1 6.50001Z" fill="#AAAAAA"/>
<path d="M12.9999 5.5C12.8673 5.50001 12.7402 5.55269 12.6464 5.64645C12.5526 5.74022 12.5 5.86739 12.4999 6C12.4989 6.92794 12.1298 7.81757 11.4737 8.47372C10.8175 9.12987 9.92788 9.49895 8.99995 9.5H2.20705L2.85352 8.85355C2.94729 8.75977 2.99996 8.63259 2.99996 8.49998C2.99995 8.36737 2.94727 8.24019 2.85349 8.14642C2.75972 8.05266 2.63254 7.99998 2.49993 7.99999C2.36731 7.99999 2.24014 8.05268 2.14637 8.14645L0.64637 9.64645C0.644875 9.64795 0.643624 9.64963 0.642144 9.65112C0.632164 9.66138 0.62246 9.67187 0.613381 9.68295C0.608116 9.68936 0.603524 9.69611 0.598626 9.7027C0.593804 9.70917 0.588784 9.71548 0.584282 9.7222C0.579157 9.72986 0.574699 9.73779 0.570046 9.74564C0.566384 9.7518 0.562523 9.75778 0.559136 9.7641C0.554879 9.77203 0.551277 9.78018 0.547478 9.78827C0.544335 9.79498 0.540962 9.80157 0.538109 9.80847C0.534859 9.81631 0.532234 9.82431 0.529396 9.83227C0.526741 9.83972 0.523872 9.84704 0.521569 9.85464C0.519142 9.86267 0.517342 9.87085 0.515327 9.87897C0.513405 9.88665 0.511223 9.89429 0.509667 9.90213C0.507792 9.91156 0.50663 9.92111 0.505318 9.93066C0.504387 9.93729 0.503106 9.94379 0.502449 9.9505C0.499184 9.98342 0.499184 10.0166 0.502449 10.0495C0.503106 10.0562 0.504387 10.0627 0.505318 10.0693C0.506631 10.0789 0.50779 10.0884 0.509667 10.0979C0.511223 10.1057 0.513405 10.1133 0.515327 10.121C0.517342 10.1292 0.51914 10.1373 0.521569 10.1454C0.523872 10.153 0.526741 10.1603 0.529396 10.1677C0.532234 10.1757 0.534859 10.1837 0.538109 10.1915C0.540962 10.1984 0.544335 10.205 0.547478 10.2117C0.551277 10.2198 0.554879 10.228 0.559136 10.2359C0.562523 10.2422 0.566386 10.2482 0.570046 10.2544C0.574699 10.2622 0.579155 10.2701 0.584282 10.2778C0.588782 10.2845 0.593804 10.2908 0.598626 10.2973C0.603524 10.3039 0.608116 10.3106 0.613381 10.317C0.622292 10.3279 0.631829 10.3382 0.641609 10.3483C0.643272 10.35 0.644676 10.3519 0.64637 10.3535L2.14637 11.8535C2.1928 11.9 2.24792 11.9368 2.30858 11.9619C2.36924 11.9871 2.43426 12 2.49993 12C2.56559 12 2.63061 11.9871 2.69127 11.962C2.75194 11.9368 2.80706 11.9 2.85349 11.8536C2.89993 11.8071 2.93676 11.752 2.96189 11.6914C2.98702 11.6307 2.99996 11.5657 2.99996 11.5C2.99996 11.4344 2.98703 11.3693 2.96191 11.3087C2.93678 11.248 2.89995 11.1929 2.85352 11.1465L2.20705 10.5H8.99995C10.193 10.4987 11.3368 10.0241 12.1804 9.1805C13.0241 8.33687 13.4986 7.19306 13.4999 6C13.4999 5.86739 13.4473 5.74022 13.3535 5.64645C13.2597 5.55269 13.1326 5.50001 12.9999 5.5Z" fill="#AAAAAA"/>
</svg>
